<svg width="12" height="12" viewBox="0 0 12 12" fill="none" xmlns="http://www.w3.org/2000/svg">
<path fill-rule="evenodd" clip-rule="evenodd" d="M0.292893 6.70711C0.653377 7.06759 1.22061 7.09532 1.6129 6.7903L1.70711 6.70711L6 2.41421L10.2929 6.70711C10.6834 7.09763 11.3166 7.09763 11.7071 6.70711C12.0676 6.34662 12.0953 5.77939 11.7903 5.3871L11.7071 5.29289L6.70711 0.292893C6.34662 -0.0675905 5.77939 -0.0953204 5.3871 0.209704L5.29289 0.292893L0.292893 5.29289C-0.0976311 5.68342 -0.0976311 6.31658 0.292893 6.70711Z" fill="white"/>
<path d="M5 3C5 2.44772 5.44772 2 6 2C6.55228 2 7 2.44772 7 3V11C7 11.5523 6.55228 12 6 12C5.44772 12 5 11.5523 5 11V3Z" fill="white"/>
</svg>
