<svg width="16" height="16" viewBox="0 0 16 16" fill="none" xmlns="http://www.w3.org/2000/svg">
<path fill-rule="evenodd" clip-rule="evenodd" d="M11.3158 6.58577C10.5347 7.36682 10.5347 8.63315 11.3158 9.4142L15.6062 13.7046C16.1313 14.2297 16.1313 15.0811 15.6062 15.6062C15.0811 16.1313 14.2298 16.1313 13.7047 15.6062L9.41427 11.3158C8.63322 10.5347 7.36689 10.5347 6.58584 11.3158L2.29531 15.6063C1.77021 16.1314 0.918862 16.1314 0.393764 15.6063C-0.131335 15.0812 -0.131336 14.2298 0.393762 13.7047L4.68429 9.41421C5.46534 8.63316 5.46534 7.36683 4.68429 6.58578L0.393885 2.29537C-0.131213 1.77027 -0.131213 0.918919 0.393887 0.393821C0.918985 -0.131275 1.77034 -0.131273 2.29543 0.393823L6.58584 4.68423C7.36689 5.46528 8.63322 5.46528 9.41427 4.68423L13.7046 0.393931C14.2297 -0.131166 15.081 -0.131164 15.6061 0.393936C16.1312 0.91903 16.1312 1.77037 15.6061 2.29546L11.3158 6.58577Z" fill="#2E31BC"/>
</svg>
