<svg width="10" height="10" viewBox="0 0 10 10" fill="none" xmlns="http://www.w3.org/2000/svg">
<path fill-rule="evenodd" clip-rule="evenodd" d="M6.89555 4.29264C6.50503 4.68316 6.50502 5.31633 6.89555 5.70685L9.7538 8.56511C10.082 8.89329 10.082 9.42538 9.7538 9.75356C9.42562 10.0817 8.89353 10.0817 8.56534 9.75356L5.7071 6.8953C5.31658 6.50477 4.68341 6.50477 4.29289 6.89529L1.4344 9.75375C1.10622 10.0819 0.574132 10.0819 0.245952 9.75375C-0.0822287 9.42556 -0.0822279 8.89348 0.245954 8.5653L3.10441 5.70684C3.49494 5.31631 3.49494 4.68315 3.10442 4.29262L0.246161 1.43434C-0.0820177 1.10616 -0.082018 0.574078 0.24616 0.245896C0.574343 -0.0822897 1.10643 -0.0822912 1.43462 0.245893L4.29289 3.10417C4.68341 3.4947 5.31658 3.4947 5.7071 3.10418L8.56516 0.246123C8.89335 -0.0820589 9.42543 -0.0820613 9.75362 0.246118C10.0818 0.574303 10.0818 1.1064 9.75362 1.43459L6.89555 4.29264Z" fill="#B88D06"/>
</svg>
