<svg width="12" height="12" viewBox="0 0 12 12" fill="none" xmlns="http://www.w3.org/2000/svg">
<path fill-rule="evenodd" clip-rule="evenodd" d="M8.84043 4.58571C8.05939 5.36676 8.05938 6.63308 8.84042 7.41413L11.7047 10.2784C12.0985 10.6723 12.0985 11.3108 11.7047 11.7046C11.3109 12.0984 10.6723 12.0984 10.2785 11.7046L7.41426 8.8403C6.63321 8.05924 5.36688 8.05924 4.58582 8.84029L1.72152 11.7046C1.3277 12.0984 0.689184 12.0984 0.295364 11.7046C-0.0984554 11.3108 -0.0984544 10.6723 0.295366 10.2784L3.1597 7.4141C3.94074 6.63306 3.94075 5.36674 3.15971 4.58569L0.295475 1.7214C-0.0983396 1.32758 -0.0983389 0.689073 0.295476 0.295251C0.689301 -0.0985792 1.32782 -0.0985801 1.72165 0.29525L4.58586 3.15951C5.36691 3.94057 6.63325 3.94057 7.4143 3.15952L10.2785 0.29534C10.6723 -0.098482 11.3108 -0.0984841 11.7046 0.295335C12.0985 0.68916 12.0985 1.32768 11.7046 1.72151L8.84043 4.58571Z" fill="#808080"/>
</svg>
