<svg width="14" height="14" viewBox="0 0 14 14" fill="none" xmlns="http://www.w3.org/2000/svg">
<path d="M13.3636 2.54545H11.4545V0.636364C11.4545 0.284921 11.1696 0 10.8182 0H0.636364C0.284921 0 0 0.284921 0 0.636364V10.8182C0 11.1696 0.284921 11.4545 0.636364 11.4545H2.54545V13.3636C2.54545 13.7151 2.83038 14 3.18182 14H13.3636C13.7151 14 14 13.7151 14 13.3636V3.18182C14 2.83038 13.7151 2.54545 13.3636 2.54545ZM1.27273 1.27273H10.1818V10.1818H3.18224C3.18207 10.1818 3.18199 10.1818 3.18182 10.1818C3.18169 10.1818 3.18156 10.1818 3.18139 10.1818H1.27273V1.27273ZM12.7273 12.7273H3.81818V11.4545H10.8182C11.1696 11.4545 11.4545 11.1696 11.4545 10.8182V3.81818H12.7273V12.7273Z" fill="#2E31BC"/>
</svg>
