<svg width="16" height="14" viewBox="0 0 16 14" fill="none" xmlns="http://www.w3.org/2000/svg">
<path d="M13.4394 7.7778H4.75018C4.33599 7.7778 4.00019 7.42957 4.00019 7.00003C4.00019 6.57049 4.33599 6.22225 4.75018 6.22225H13.4394L12.4697 5.21664C12.1768 4.91289 12.1768 4.42046 12.4697 4.11671C12.7626 3.81296 13.2375 3.81296 13.5304 4.11671L15.7803 6.44998C15.7978 6.46818 15.8144 6.48727 15.8301 6.50718C15.837 6.51584 15.8429 6.52501 15.8494 6.53388C15.8576 6.54529 15.8661 6.55644 15.8738 6.56831C15.8808 6.57915 15.8868 6.5904 15.8932 6.60149C15.8994 6.61218 15.9058 6.6226 15.9115 6.63359C15.9174 6.645 15.9223 6.65672 15.9276 6.66833C15.9328 6.67969 15.9383 6.69089 15.9429 6.7025C15.9474 6.71386 15.9511 6.72542 15.9551 6.73693C15.9594 6.74938 15.964 6.76166 15.9677 6.77437C15.9711 6.78588 15.9735 6.79754 15.9763 6.80921C15.9795 6.82212 15.983 6.83498 15.9855 6.84815C15.988 6.86158 15.9896 6.87517 15.9914 6.8887C15.993 6.90026 15.9952 6.91167 15.9963 6.92339C15.9987 6.94849 15.9999 6.97374 16 6.99894C16 6.9993 16 6.99971 16 7.00008C16 7.00044 16 7.00086 16 7.00122C15.9999 7.02647 15.9987 7.05167 15.9963 7.07682C15.9952 7.08838 15.9931 7.09963 15.9915 7.11109C15.9896 7.12478 15.9881 7.13847 15.9855 7.15205C15.983 7.16512 15.9795 7.17777 15.9764 7.19058C15.9735 7.20235 15.971 7.21422 15.9676 7.22589C15.964 7.23839 15.9594 7.25047 15.9552 7.26271C15.9512 7.27443 15.9475 7.2862 15.9429 7.29771C15.9383 7.30911 15.933 7.32005 15.9279 7.3312C15.9225 7.34308 15.9174 7.35505 15.9114 7.36672C15.9059 7.37735 15.8996 7.38746 15.8937 7.39778C15.8871 7.40924 15.8809 7.4208 15.8737 7.43195C15.8664 7.44331 15.8582 7.45394 15.8504 7.46488C15.8436 7.47426 15.8373 7.48396 15.83 7.49308C15.8151 7.51196 15.7992 7.53005 15.7827 7.54742C15.7819 7.54825 15.7812 7.54919 15.7804 7.55002L13.5304 9.88339C13.3839 10.0353 13.192 10.1112 13.0001 10.1112C12.8082 10.1112 12.6162 10.0353 12.4698 9.88344C12.1769 9.5797 12.1769 9.08726 12.4697 8.78352L13.4394 7.7778Z" fill="#2E31BC"/>
<path d="M0.749997 0H10.25C10.6642 0 11 0.348236 11 0.777775V3.88887C11 4.31841 10.6642 4.66665 10.25 4.66665C9.83577 4.66665 9.49997 4.31841 9.49997 3.88887V1.55555H1.5V12.4445H9.49997V10.1111C9.49997 9.68153 9.83577 9.3333 10.25 9.3333C10.6642 9.3333 11 9.68153 11 10.1111V13.2222C11 13.6518 10.6642 14 10.25 14H0.749997C0.335799 14 0 13.6518 0 13.2222V0.777775C0 0.348236 0.335799 0 0.749997 0Z" fill="#2E31BC"/>
</svg>
