<svg width="14" height="14" viewBox="0 0 14 14" fill="none" xmlns="http://www.w3.org/2000/svg">
<path d="M14.0002 0.767097C14.0002 0.343437 13.6568 0 13.2331 0H0.767402C0.609437 0 0.455284 0.0487953 0.326087 0.139662C-0.0204429 0.383387 -0.103758 0.861919 0.139967 1.20845L4.65974 7.63425L4.67243 12.3091C4.67322 12.6009 4.75999 12.886 4.92183 13.1288C5.37678 13.8113 6.29882 13.9957 6.98127 13.5407L8.59558 12.4645C9.02449 12.1786 9.28116 11.6963 9.27875 11.1809L9.26235 7.66252L13.8579 1.21222C13.9505 1.08223 14.0002 0.926643 14.0002 0.767097ZM7.72589 7.17503L7.74459 11.1879L6.20644 12.2134L6.19267 7.14684L2.24485 1.53419H11.7448L7.72589 7.17503Z" fill="#4347E7"/>
</svg>
