<svg width="36" height="26" viewBox="0 0 36 26" fill="none" xmlns="http://www.w3.org/2000/svg">
<path fill-rule="evenodd" clip-rule="evenodd" d="M27.1457 0L0 25.7143L24.488 17.844L27.1457 0ZM17.4528 22.0224L25.8097 20.5199L29.2918 16.6134L17.4528 22.0224Z" fill="#2AF020"/>
<path fill-rule="evenodd" clip-rule="evenodd" d="M32.5606 11.9771L31.2815 16.2127L28.9222 18.4593L21.0912 19.1032L21.7876 21.5359L13.0043 16.5991L7.02089 14.8676L5.17328 12.621L9.19539 8.41398L8.49898 5.70947L10.8582 7.89884L18.2203 10.1454L19.6415 9.90218L19.9115 10.6606L23.1662 11.6623L24.8006 11.2043L24.9712 12.6353L27.97 14.5957L30.4571 11.1328L29.2491 7.66988L29.6328 7.35507L32.5606 8.82896L33.7118 7.92745L36 7.28352L32.5606 11.9771ZM15.5057 14.4669L15.0651 14.7245L16.4721 15.7548L17.1685 14.6673L15.5057 14.4669Z" fill="#2E31BC"/>
<path fill-rule="evenodd" clip-rule="evenodd" d="M7.03515 14.8532L5.31545 12.764L5.24438 12.6066L12.18 15.1108L13.7576 17.0139L13.0044 16.5847L7.03515 14.8532ZM31.2957 16.1983L28.9365 18.4449L21.1054 19.0888L21.1907 19.4036H21.1054V19.2749L20.5938 17.2858L31.3099 16.1411L31.2957 16.1983ZM27.5294 14.3381L27.5436 14.3094L27.97 14.5813L30.4572 11.1184L29.0502 15.2825L27.5294 14.3381Z" fill="#F738FA"/>
</svg>
