<svg width="56" height="40" viewBox="0 0 56 40" fill="none" xmlns="http://www.w3.org/2000/svg">
<path fill-rule="evenodd" clip-rule="evenodd" d="M42.2266 0L0 40L38.0924 27.7574L42.2266 0ZM27.1488 34.2571L40.1485 31.9199L45.565 25.8431L27.1488 34.2571Z" fill="#2AF020"/>
<path fill-rule="evenodd" clip-rule="evenodd" d="M50.6498 18.6309L48.6601 25.2197L44.9901 28.7144L32.8085 29.7161L33.8918 33.5002L20.229 25.8207L10.9214 23.1273L8.04736 19.6326L14.304 13.0884L13.2207 8.88135L16.8906 12.287L28.3427 15.7817L30.5535 15.4033L30.9735 16.5831L36.0363 18.1412L38.5788 17.4289L38.8441 19.6549L43.5089 22.7044L47.3778 17.3176L45.4986 11.9309L46.0955 11.4412L50.6498 13.7339L52.4406 12.3315L56 11.3299L50.6498 18.6309ZM24.12 22.5041L23.4347 22.9047L25.6234 24.5074L26.7067 22.8157L24.12 22.5041Z" fill="#2E31BC"/>
<path fill-rule="evenodd" clip-rule="evenodd" d="M10.9436 23.1051L8.2685 19.8552L8.15796 19.6104L18.9468 23.5058L21.4008 26.4663L20.229 25.7985L10.9436 23.1051ZM48.6823 25.1975L45.0123 28.6922L32.8307 29.6939L32.9633 30.1836H32.8307V29.9832L32.0348 26.8892L48.7044 25.1084L48.6823 25.1975ZM42.8236 22.3038L42.8457 22.2592L43.5089 22.6822L47.3779 17.2954L45.1892 23.7729L42.8236 22.3038Z" fill="#F738FA"/>
</svg>
