<svg width="21" height="21" viewBox="0 0 21 21" fill="none" xmlns="http://www.w3.org/2000/svg">
<path d="M14.3395 17.4991C14.2025 16.8357 13.6829 16.117 13.4403 15.8406C14.6107 14.9147 16.9257 13.3696 16.8229 14.5968C16.6945 16.1309 16.2663 17.0845 15.4528 18.1624C14.8019 19.0248 14.4394 19.1299 14.3395 19.0746C14.3966 18.8258 14.4765 18.1624 14.3395 17.4991Z" fill="#303749"/>
<path d="M4.70542 10.3262C4.67117 9.16534 6.2326 7.90769 7.01761 7.42398C10.3746 8.7839 12.3271 6.94027 12.8837 5.84846C12.2414 5.93138 11.4279 5.72408 10.4003 5.10216C9.57814 4.60463 8.83025 4.72902 8.55907 4.8534C8.81598 4.06564 8.13089 3.1535 7.2317 2.28282C6.51236 1.58628 6.36106 0.804047 6.37534 0.5C4.06315 1.99259 5.17643 4.56317 5.30488 4.8534C5.43334 5.14363 6.20406 5.93138 5.56179 6.51184C4.91952 7.09229 0.937379 8.79219 0.380788 12.6066C-0.190315 16.5205 3.59216 17.499 5.64743 17.7063C7.70271 17.9136 11.5563 17.2088 13.6544 16.2966C15.7525 15.3845 19.178 13.4773 20.0772 10.6994C20.9764 7.92151 19.3065 6.34599 16.6945 6.30453C14.0826 6.26307 11.3423 8.50196 9.28698 10.1604C7.23171 11.8188 4.74824 11.7774 4.70542 10.3262Z" fill="#303749"/>
<mask id="mask0" mask-type="alpha" maskUnits="userSpaceOnUse" x="0" y="0" width="21" height="18">
<path d="M4.70542 10.3262C4.67117 9.16534 6.2326 7.90769 7.01761 7.42398C10.3746 8.7839 12.3271 6.94027 12.8837 5.84846C12.2414 5.93138 11.4279 5.72408 10.4003 5.10216C9.57814 4.60463 8.83025 4.72902 8.55907 4.8534C8.81598 4.06564 8.13089 3.1535 7.2317 2.28282C6.51236 1.58628 6.36106 0.804047 6.37534 0.5C4.06315 1.99259 5.17643 4.56317 5.30488 4.8534C5.43334 5.14363 6.20406 5.93138 5.56179 6.51184C4.91952 7.09229 0.937379 8.79219 0.380788 12.6066C-0.190315 16.5205 3.59216 17.499 5.64743 17.7063C7.70271 17.9136 11.5563 17.2088 13.6544 16.2966C15.7525 15.3845 19.178 13.4773 20.0772 10.6994C20.9764 7.92151 19.3065 6.34599 16.6945 6.30453C14.0826 6.26307 11.3423 8.50196 9.28698 10.1604C7.23171 11.8188 4.74824 11.7774 4.70542 10.3262Z" fill="#393939"/>
</mask>
<g mask="url(#mask0)">
<path d="M12.9692 12.9797C16.9427 11.3212 19.1921 8.6401 19.8201 7.50684C21.0875 8.10387 22.2036 10.2433 22.6033 11.2383L17.8504 17.3331L7.74533 19.9866L-0.133224 18.7013C-0.461498 15.9096 -0.809753 10.8569 0.423413 12.9797C1.96487 15.6332 8.00224 15.0527 12.9692 12.9797Z" fill="url(#paint0_linear)"/>
</g>
<path d="M11.4706 17.3741C12.738 15.6825 12.9692 13.6012 12.9264 12.772C10.9996 12.772 7.25728 12.772 7.36004 14.5963C7.4885 16.8766 6.46086 19.3643 5.98986 19.9447C5.51885 20.5252 5.94704 20.5666 6.46086 20.4422C6.97468 20.3179 9.88632 19.4886 11.4706 17.3741Z" fill="#303749"/>
<defs>
<linearGradient id="paint0_linear" x1="12.8835" y1="10.4091" x2="15.7214" y2="17.2335" gradientUnits="userSpaceOnUse">
<stop stop-color="#303749"/>
<stop offset="1" stop-color="#6E8DDF"/>
</linearGradient>
</defs>
</svg>
