<svg width="19" height="4" viewBox="0 0 19 4" fill="none" xmlns="http://www.w3.org/2000/svg">
<path d="M14.333 2C14.333 3.10457 15.2284 4 16.333 4C17.4376 4 18.333 3.10457 18.333 2C18.333 0.895431 17.4376 -3.91405e-08 16.333 -8.74228e-08C15.2284 -1.35705e-07 14.333 0.895431 14.333 2Z" fill="#4347E7"/>
<path d="M7.33308 2C7.33308 3.10457 8.22851 4 9.33308 4C10.4376 4 11.3331 3.10457 11.3331 2C11.3331 0.89543 10.4376 -3.45117e-07 9.33308 -3.93399e-07C8.22851 -4.41682e-07 7.33308 0.89543 7.33308 2Z" fill="#4347E7"/>
<path d="M0.333151 2C0.333151 3.10457 1.22858 4 2.33315 4C3.43772 4 4.33315 3.10457 4.33315 2C4.33315 0.89543 3.43772 -6.51094e-07 2.33315 -6.99376e-07C1.22858 -7.47658e-07 0.333151 0.89543 0.333151 2Z" fill="#4347E7"/>
</svg>
