<svg width="13" height="14" viewBox="0 0 13 14" fill="none" xmlns="http://www.w3.org/2000/svg">
<path d="M5.32423 10.7071C6.4204 10.7071 7.43305 10.3727 8.27866 9.80854L11.3375 12.8698C11.5777 13.1101 11.9744 13.1101 12.2249 12.8698L12.8199 12.2743C13.06 12.034 13.06 11.6369 12.8199 11.3862L9.75065 8.33536C10.3143 7.48907 10.6485 6.47561 10.6485 5.37856C10.6485 2.44265 8.25778 0.0500488 5.32423 0.0500488C2.39068 0.0500488 0 2.44265 0 5.37856C0 8.31436 2.38024 10.7071 5.32423 10.7071ZM5.32423 2.13966C7.10942 2.13966 8.56053 3.59194 8.56053 5.37856C8.56053 7.16518 7.10942 8.61746 5.32423 8.61746C3.53905 8.61746 2.08793 7.16518 2.08793 5.37856C2.08793 3.59194 3.53905 2.13966 5.32423 2.13966Z" fill="white"/>
</svg>
