<svg width="20" height="14" viewBox="0 0 20 14" fill="none" xmlns="http://www.w3.org/2000/svg">
<path d="M14.2246 10.2637C14.5037 9.08255 14.5218 7.9626 14.4959 7.55026L16.5114 5.6748C16.6406 6.12704 16.7595 7.31084 16.2014 8.42814C15.6432 9.54543 14.651 10.1174 14.2246 10.2637Z" fill="#5F6D41"/>
<path d="M13.5659 8.02891C17.2558 6.36893 19.3928 2.60205 20 0.926107C19.2765 0.713289 17.6124 0.463228 16.7442 1.16553C15.876 1.86783 15.1163 3.13409 14.845 3.67944C13.7597 2.88137 10.6899 1.58052 7.09302 2.76166C3.49612 3.9428 1.48579 7.08453 0.930233 8.50775L1.82171 8.86688C0.829457 9.53725 0.193798 10.3699 0 10.7024C2.13953 11.4367 4.04393 10.2901 4.72868 9.62504C6.37209 10.04 8.51421 9.71815 9.4186 9.54523C9.57364 10.7583 9.19897 12.5513 8.99225 13.2961C9.58656 13.2429 11.031 12.8492 12.0543 11.7C13.0775 10.5508 13.4884 8.77377 13.5659 8.02891Z" fill="#5F6D41"/>
<mask id="mask0" mask-type="alpha" maskUnits="userSpaceOnUse" x="0" y="0" width="20" height="14">
<path d="M13.5659 8.0289C17.2558 6.36892 19.3928 2.60204 20 0.926101C19.2765 0.713284 17.6124 0.463222 16.7442 1.16552C15.876 1.86782 15.1163 3.13409 14.845 3.67943C13.7597 2.88137 11.5 -1.0097 6.09302 0.746694C0.965537 2.4123 1.48579 7.08452 0.930233 8.50774L1.82171 8.86687C0.829457 9.53725 0.193798 10.3699 0 10.7024C2.13953 11.4366 4.04393 10.2901 4.72868 9.62503C6.37209 10.04 8.51421 9.71814 9.4186 9.54523C9.57364 10.7583 9.19897 12.5513 8.99225 13.2961C9.58656 13.2429 11.031 12.8492 12.0543 11.7C13.0775 10.5508 13.4884 8.77376 13.5659 8.0289Z" fill="#5F6D41"/>
</mask>
<g mask="url(#mask0)">
<path d="M9.03111 7.86984C12.1939 7.26331 14.2249 4.87709 14.8451 3.75979L11 -0.505859L3 1.00536L-1 7.05025L1.35669 7.4708C2.597 7.85654 5.86832 8.47637 9.03111 7.86984Z" fill="url(#paint0_linear)"/>
</g>
<defs>
<linearGradient id="paint0_linear" x1="8.10087" y1="1.4454" x2="8.10087" y2="8.12403" gradientUnits="userSpaceOnUse">
<stop stop-color="#5F6D41"/>
<stop offset="1" stop-color="#7D9942"/>
</linearGradient>
</defs>
</svg>
