<svg width="18" height="15" viewBox="0 0 18 15" fill="none" xmlns="http://www.w3.org/2000/svg">
<path d="M17.2308 2.37491C16.59 2.65599 15.9072 2.8423 15.1954 2.93276C15.9277 2.49553 16.4866 1.80845 16.7494 0.980298C16.0666 1.38738 15.3128 1.67491 14.5094 1.83538C13.8611 1.14507 12.9371 0.717529 11.9291 0.717529C9.97339 0.717529 8.39893 2.30491 8.39893 4.25091C8.39893 4.53091 8.42262 4.80014 8.48077 5.05645C5.544 4.91322 2.94539 3.50568 1.19969 1.36153C0.894924 1.8903 0.716154 2.49553 0.716154 3.14707C0.716154 4.37045 1.34615 5.45491 2.28523 6.08276C1.71769 6.07199 1.16092 5.90722 0.689231 5.64768C0.689231 5.65845 0.689231 5.67245 0.689231 5.68645C0.689231 7.40307 1.91369 8.82891 3.51939 9.15738C3.23185 9.23599 2.91846 9.27368 2.59323 9.27368C2.36708 9.27368 2.13877 9.26076 1.92446 9.21338C2.38215 10.6123 3.68093 11.6408 5.22523 11.6741C4.02339 12.6143 2.49739 13.1808 0.845385 13.1808C0.555693 13.1808 0.277846 13.1678 0 13.1323C1.56477 14.1414 3.41923 14.7175 5.41908 14.7175C11.9194 14.7175 15.4732 9.33291 15.4732 4.66553C15.4732 4.50938 15.4679 4.35861 15.4603 4.20891C16.1614 3.71138 16.7505 3.08999 17.2308 2.37491Z" fill="#4347E7"/>
</svg>
