<svg width="16" height="16" viewBox="0 0 16 16" fill="none" xmlns="http://www.w3.org/2000/svg">
<path d="M12.3333 0H3.66666C1.64466 0 0 1.64466 0 3.66666V12.3333C0 14.3553 1.64466 16 3.66666 16H12.3333C14.3553 16 16 14.3553 16 12.3333V3.66666C16 1.64466 14.3553 0 12.3333 0ZM11.8793 7.484C11.9013 7.656 11.9167 7.828 11.9167 8C11.9167 8.17134 11.9013 8.342 11.8793 8.506C11.864 8.62334 11.9107 8.74 12.004 8.81266L13.164 9.722L12.0727 11.608L10.7067 11.0587C10.5967 11.0133 10.4713 11.0313 10.3773 11.1047C10.1167 11.308 9.81997 11.4807 9.49597 11.62C9.38863 11.666 9.31331 11.7647 9.29731 11.88L9.13331 13.3333H6.90597L6.70262 11.888C6.68663 11.772 6.60997 11.6727 6.50128 11.6273C6.18328 11.494 5.89528 11.3253 5.62194 11.1133C5.52859 11.04 5.40328 11.022 5.29328 11.0667L3.92728 11.616L2.836 9.73L3.996 8.82066C4.08866 8.748 4.136 8.632 4.12134 8.51531C4.09869 8.34397 4.08334 8.17197 4.08334 7.99997C4.08334 7.82862 4.09869 7.65797 4.12069 7.49397C4.13603 7.37663 4.08934 7.25997 3.99603 7.18731L2.83603 6.27797L3.92738 4.39197L5.29338 4.94131C5.40272 4.98531 5.52803 4.96797 5.62272 4.89531C5.88338 4.69266 6.18006 4.51866 6.50406 4.37997C6.61141 4.33397 6.68672 4.23531 6.70272 4.11997L6.86672 2.66663H9.09406L9.29741 4.11197C9.31341 4.22797 9.39006 4.32731 9.49875 4.37262C9.81809 4.50662 10.1054 4.67462 10.3781 4.88662C10.4721 4.95997 10.5981 4.97728 10.7074 4.93262L12.0734 4.38328L13.1648 6.26928L12.0048 7.17863C11.912 7.25134 11.8647 7.36734 11.8793 7.484Z" fill="#2E31BC"/>
<path d="M8 10C9.10457 10 10 9.10457 10 8C10 6.89543 9.10457 6 8 6C6.89543 6 6 6.89543 6 8C6 9.10457 6.89543 10 8 10Z" fill="#2E31BC"/>
<path d="M7.99986 9.33345C8.73625 9.33345 9.33321 8.73649 9.33321 8.0001C9.33321 7.26371 8.73625 6.66675 7.99986 6.66675C7.26347 6.66675 6.6665 7.26371 6.6665 8.0001C6.6665 8.73649 7.26347 9.33345 7.99986 9.33345Z" fill="#2E31BC"/>
</svg>
