<svg width="16" height="16" viewBox="0 0 16 16" fill="none" xmlns="http://www.w3.org/2000/svg">
<path d="M4.89267 6.72333L8 3.616L11.1088 6.72467L12.9168 4.91667L8 0L3.0848 4.9152L4.89274 6.7232L4.89267 6.72333ZM0 8L1.80806 6.19168L3.616 7.99962L1.80794 9.80768L0 8ZM4.89267 9.27686L8 12.384L11.1087 9.27539L12.9177 11.0824L12.9168 11.0834L8 16L3.08224 11.0822L4.89286 9.27667L4.89267 9.27686ZM12.384 8.00077L14.1921 6.1927L16 8.00064L14.192 9.8087L12.384 8.00077Z" fill="#F3BA2F"/>
<path d="M9.83373 7.99904H9.83449L8 6.16442L6.16698 7.99718L6.16442 7.99968L6.16698 8.0023L8 9.83558L9.83462 8.00096L9.83552 7.99994L9.83386 7.99904" fill="#F3BA2F"/>
</svg>
