<svg width="100" height="71" viewBox="0 0 100 71" fill="none" xmlns="http://www.w3.org/2000/svg">
<path fill-rule="evenodd" clip-rule="evenodd" d="M75.4047 0L0 70.9436L68.0221 49.2302L75.4047 0ZM48.4801 60.758L71.6937 56.6127L81.366 45.835L48.4801 60.758Z" fill="#2AF020"/>
<path fill-rule="evenodd" clip-rule="evenodd" d="M90.4459 33.0437L86.8928 44.7295L80.3393 50.9276L58.5865 52.7042L60.5209 59.4156L36.123 45.7954L19.5024 41.0184L14.3701 34.8203L25.5426 23.2135L23.6082 15.752L30.1617 21.7922L50.6117 27.9904L54.5596 27.3193L55.3097 29.4117L64.3504 32.1752L68.8905 30.9118L69.3642 34.8597L77.6943 40.2683L84.6031 30.7145L81.2474 21.1606L82.3133 20.292L90.4459 24.3584L93.6437 21.8712L99.9998 20.0946L90.4459 33.0437ZM43.0713 39.913L41.8474 40.6237L45.7558 43.4661L47.6903 40.4657L43.0713 39.913Z" fill="#2E31BC"/>
<path fill-rule="evenodd" clip-rule="evenodd" d="M19.5417 40.979L14.7648 35.2151L14.5674 34.7809L33.8331 41.6897L38.2152 46.9404L36.1229 45.756L19.5417 40.979ZM86.9322 44.6901L80.3787 50.8882L58.6258 52.6648L58.8627 53.5333H58.6258V53.178L57.2046 47.6905L86.9717 44.5321L86.9322 44.6901ZM76.4703 39.5578L76.5098 39.4788L77.6941 40.2289L84.6029 30.675L80.6945 42.1634L76.4703 39.5578Z" fill="#F738FA"/>
</svg>
